<?xml version="1.0" encoding="utf-8"?>
<!-- Generator: Adobe Illustrator 25.0.1, SVG Export Plug-In . SVG Version: 6.00 Build 0)  -->
<svg version="1.1" id="Calque_1" xmlns="http://www.w3.org/2000/svg" xmlns:xlink="http://www.w3.org/1999/xlink" x="0px" y="0px"
	 viewBox="0 0 200 16" style="enable-background:new 0 0 200 16;" xml:space="preserve">
<style type="text/css">
	.st0{fill:#1D1D1B;}
	.st1{fill-rule:evenodd;clip-rule:evenodd;fill:#1D1D1B;}
</style>
<path class="st0" d="M177.1,8.2c0.7,0.7,1.9,2.2,1.9,2.2c0,0-0.1-1.9-0.1-3V0.9h2.4v14.9h-0.2l-7.1-7.3c-0.7-0.7-2.3-2.6-2.3-2.6
	s0.1,1.9,0.1,3v6.5h-2.5V0.5h0.2L177.1,8.2z"/>
<path class="st0" d="M152.7,0.7c1.3,0,2.5,0.3,4.2,1.8l-1.6,1.8c-1.3-1.2-2-1.2-2.6-1.2c-0.6,0-1.6,0.4-1.6,1.6
	c0,0.7,0.5,1.3,2.9,2.3v0c2,0.9,3.9,2,3.9,4.5c0,2.3-2.1,4.2-4.6,4.2c-2.1,0-3.8-0.8-5.4-2.6l1.8-1.6c1.4,1.6,2.6,1.8,3.6,1.8
	c1.1,0,2.2-0.9,2.2-1.8c0-0.7-0.2-1.3-2.4-2.3c-2.1-0.9-4.3-2.1-4.3-4.5c0-1.2,0.5-2.2,1.3-2.9C150.7,1.1,151.7,0.7,152.7,0.7z"/>
<path class="st1" d="M192.4,0.7c4.1,0,7.5,3.3,7.5,7.5c0,4.1-3.3,7.5-7.5,7.5c-4.1,0-7.5-3.3-7.5-7.5C184.9,4,188.2,0.7,192.4,0.7z
	 M192.4,3c-2.8,0-5.1,2.3-5.1,5.1c0,2.8,2.3,5.1,5.1,5.1c2.8,0,5.1-2.3,5.1-5.1S195.2,3,192.4,3z"/>
<path class="st0" d="M124.7,0.7c1.9,0,3.8,0.8,5.2,2.3c0.1,0.1,0.3,0.3,0.4,0.4l-1.8,1.5c-0.1-0.1-0.2-0.2-0.2-0.3
	c-0.9-1-2.2-1.5-3.5-1.5c-1.3,0-2.6,0.5-3.6,1.5c-2,2-2,5.2,0,7.1c1,1,2.3,1.5,3.6,1.5c1.3,0,2.6-0.6,3.5-1.5l0,0
	c0.1-0.1,0.2-0.2,0.3-0.3l1.8,1.5c-0.1,0.1-0.2,0.3-0.4,0.4c-1.4,1.4-3.3,2.3-5.2,2.3c-2,0-3.8-0.8-5.3-2.2c-2.9-2.9-2.9-7.6,0-10.5
	C120.8,1.5,122.7,0.7,124.7,0.7z"/>
<path class="st1" d="M36.3,0.9c2.8,0,5,2.2,5,5c0,1.9-1,3.6-2.7,4.5l0,0l-0.1,0l3,5h-2.9L36,10.9h-3v4.5h-2.4V0.9H36.3z M33,8.5h3.3
	v0c1.5,0,2.7-1.2,2.7-2.7c0-1.5-1.2-2.7-2.7-2.7H33V8.5z"/>
<path class="st1" d="M51.7,0.9c2.8,0,5,2.2,5,5c0,1.9-1,3.6-2.7,4.5v0l-0.1,0l3,5H54l-2.6-4.5h-3v4.5H46V0.9H51.7z M48.4,8.5h3.3v0
	c1.5,0,2.7-1.2,2.7-2.7c0-1.5-1.2-2.7-2.7-2.7h-3.3V8.5z"/>
<path class="st0" d="M74.9,0.9h3.5v2.3h-6.9v4h5.9v2.3h-5.9v3.6h7.2v2.3h-9.6V0.9h2.1V0L74.9,0.9z"/>
<path class="st1" d="M88.5,0.9c2.8,0,5,2.2,5,5c0,1.9-1,3.6-2.7,4.5v0l-0.1,0l3,5h-2.9l-2.6-4.5h-3v4.5h-2.4V0.9H88.5z M85.2,8.5
	h3.3v0c1.5,0,2.7-1.2,2.7-2.7c0-1.5-1.2-2.7-2.7-2.7h-3.3V8.5z"/>
<path class="st0" d="M106.8,3.2h-6.9v4h5.9v2.3h-5.9v3.5h7.2v2.3h-9.6V0.9h9.3V3.2z"/>
<path class="st1" d="M26.7,15.4h-2.6l-1-2.4H17l-1,2.4h-2.6l6.6-14.9h0.2L26.7,15.4z M20,5.6c-0.2,0.5-0.6,1.6-1,2.6l-1.2,2.8h4.4
	L21,8.2C20.6,7.2,20.2,6.1,20,5.6z"/>
<path class="st1" d="M145.5,15.4h-2.6l-1-2.4h-6.1l-1,2.4h-2.6l6.6-14.9h0.2L145.5,15.4z M138.9,5.6c-0.2,0.5-0.6,1.6-1,2.6
	l-1.2,2.8h4.4l-1.2-2.8C139.4,7.2,139,6.1,138.9,5.6z"/>
<path class="st1" d="M5.7,0.9C8,0.9,10,2.8,10,5.1c0,1.1-0.6,2-1.5,2.8h0c1.3,0.5,2.3,1.7,2.3,3.3c0,2.3-1.9,4.2-4.2,4.2H0V0.9H5.7z
	 M2.4,13h4.2l0,0c1,0,1.8-0.9,1.8-1.9c0-1-0.8-1.9-1.8-1.9H2.4V13z M2.4,7h3.3c1,0,1.8-0.9,1.8-1.9c0-1-0.8-1.9-1.8-1.9H2.4V7z"/>
<path class="st0" d="M63.7,15.4h-2.4V0.9h2.4V15.4z"/>
<path class="st0" d="M164.2,15.4h-2.4V0.9h2.4V15.4z"/>
</svg>
