<svg width="200" height="16" viewBox="0 0 200 16" fill="none" xmlns="http://www.w3.org/2000/svg">
<path d="M177.148 8.15278C177.852 8.82139 179.027 10.3163 179.034 10.3255C179.034 10.3159 178.951 8.38787 178.951 7.37043V0.866282H181.382V15.7538H181.207L174.067 8.50213C173.362 7.83842 171.727 5.89626 171.727 5.89626C171.727 5.89626 171.811 7.8315 171.811 8.85149V15.3556H169.359V0.460975H169.533L177.148 8.15278Z" fill="white"/>
<path d="M152.69 0.677617C154.038 0.677627 155.212 0.985046 156.895 2.501L155.282 4.28952C153.947 3.08793 153.305 3.08794 152.69 3.08794C152.075 3.08794 151.111 3.51404 151.111 4.65279C151.111 5.33044 151.586 5.95925 153.968 6.98621V6.97215C155.973 7.83844 157.831 8.98429 157.831 11.4644C157.831 13.7349 155.736 15.649 153.256 15.649C151.139 15.649 149.469 14.8457 147.841 13.0292L149.637 11.4224C151.076 13.0222 152.229 13.2459 153.262 13.2459C154.373 13.2459 155.428 12.3865 155.428 11.4713C155.428 10.7657 155.254 10.1509 153.018 9.18678C150.929 8.28556 148.708 7.11886 148.708 4.64576C148.708 3.49306 149.169 2.44511 150 1.70459C150.734 1.0549 151.712 0.677617 152.69 0.677617Z" fill="white"/>
<path fill-rule="evenodd" clip-rule="evenodd" d="M192.35 0.6637C196.458 0.663734 199.804 4.00307 199.804 8.11792C199.804 12.2328 196.458 15.5721 192.35 15.5721C188.242 15.5721 184.896 12.2258 184.896 8.11792C184.896 4.01003 188.242 0.6637 192.35 0.6637ZM192.35 2.96915C189.514 2.96915 187.201 5.27453 187.201 8.11792C187.201 10.9613 189.514 13.2667 192.35 13.2667C195.187 13.2667 197.499 10.9543 197.499 8.11792C197.499 5.28154 195.187 2.96918 192.35 2.96915Z" fill="white"/>
<path d="M124.675 0.698564C126.61 0.698564 128.517 1.52306 129.908 2.95523C130.033 3.08096 130.159 3.21367 130.271 3.35336L128.454 4.87632C128.378 4.78551 128.294 4.69467 128.21 4.60386C127.267 3.62582 125.981 3.06701 124.682 3.06699C123.334 3.06699 122.069 3.59793 121.112 4.54805C119.142 6.51816 119.142 9.72485 121.112 11.695C122.069 12.652 123.396 13.176 124.689 13.176C125.981 13.176 127.267 12.61 128.21 11.632L128.203 11.639C128.287 11.5482 128.371 11.4573 128.454 11.3595L130.278 12.8826C130.166 13.0223 130.04 13.1551 129.914 13.2878C128.524 14.7269 126.617 15.5513 124.682 15.5513C122.698 15.5443 120.832 14.7758 119.428 13.3716C116.536 10.4723 116.536 5.76358 119.428 2.8713C120.826 1.47407 122.691 0.698564 124.675 0.698564Z" fill="white"/>
<path fill-rule="evenodd" clip-rule="evenodd" d="M36.2724 0.866282C39.0319 0.866314 41.2744 3.10889 41.2744 5.86842C41.2744 7.7547 40.2264 9.46636 38.5358 10.3257L38.5289 10.3325L38.445 10.3746L41.4421 15.3697H38.5638L35.9649 10.8706H32.9889V15.3697H30.5576V0.866282H36.2724ZM32.9958 8.53714H36.2793V8.53011C37.7533 8.53011 38.948 7.32849 38.948 5.86139C38.948 4.39431 37.7533 3.19268 36.2793 3.19268H32.9958V8.53714Z" fill="white"/>
<path fill-rule="evenodd" clip-rule="evenodd" d="M51.7046 0.866282C54.4642 0.866282 56.7068 3.10887 56.7068 5.86842C56.7068 7.7547 55.6588 9.46636 53.9682 10.3257V10.3325L53.8844 10.3746L56.8814 15.3697H54.0032L51.3973 10.8706H48.4211V15.3697H45.99V0.866282H51.7046ZM48.4211 8.53714H51.7046V8.53011C53.1787 8.53011 54.3733 7.32849 54.3733 5.86139C54.3733 4.39431 53.1787 3.19268 51.7046 3.19268H48.4211V8.53714Z" fill="white"/>
<path d="M74.8846 0.866282H78.3777V3.17876H71.4823V7.19582H77.3717V9.50127H71.4823V13.0572H78.6641V15.3697H69.0512V0.866282H71.112V0L74.8846 0.866282Z" fill="white"/>
<path fill-rule="evenodd" clip-rule="evenodd" d="M88.4588 0.866282C91.2183 0.866283 93.4609 3.10887 93.4609 5.86842C93.4609 7.75469 92.413 9.46635 90.7223 10.3257V10.3325L90.6384 10.3746L93.6355 15.3697H90.7572L88.1513 10.8706H85.1753V15.3697H82.7441V0.866282H88.4588ZM85.1753 8.53714H88.4588V8.53011C89.9259 8.53011 91.1275 7.32849 91.1275 5.86139C91.1275 4.39431 89.9328 3.19268 88.4588 3.19268H85.1753V8.53714Z" fill="white"/>
<path d="M106.832 3.17876H99.9369V7.19582H105.833V9.5083H99.9369V13.0572H107.119V15.3697H97.5058V0.866282H106.832V3.17876Z" fill="white"/>
<path fill-rule="evenodd" clip-rule="evenodd" d="M26.6942 15.3695H24.0954L23.0754 12.9664H16.9905L15.9704 15.3695H13.3716L19.9456 0.475035H20.1202L26.6942 15.3695ZM20.0294 5.57488C19.8547 6.05692 19.4495 7.16773 19.0233 8.15278L17.8427 10.9473H22.216L21.0354 8.15278C20.5953 7.17473 20.197 6.05692 20.0294 5.57488Z" fill="white"/>
<path fill-rule="evenodd" clip-rule="evenodd" d="M145.508 15.3695H142.909L141.896 12.9664H135.811L134.798 15.3695H132.199L138.773 0.475035H138.948L145.508 15.3695ZM138.857 5.57488C138.682 6.05692 138.277 7.16773 137.851 8.15278L136.67 10.9473H141.044L139.863 8.15278C139.423 7.17473 139.025 6.05692 138.857 5.57488Z" fill="white"/>
<path fill-rule="evenodd" clip-rule="evenodd" d="M5.70773 0.866282C8.04808 0.866303 9.95521 2.77354 9.95521 5.11391C9.95521 6.24567 9.36842 7.16089 8.50213 7.88047H8.50916C9.85748 8.36252 10.8426 9.59912 10.8426 11.15C10.8426 13.4694 8.94929 15.3626 6.62294 15.3627H0V0.866282H5.70773ZM2.43113 13.0433H6.62983L6.63686 13.0363C7.64983 13.0363 8.41128 12.1141 8.41131 11.15C8.41131 10.1301 7.59399 9.26371 6.62294 9.26368H2.43113V13.0433ZM2.43113 7.04216H5.70773C6.67878 7.04214 7.52406 6.10596 7.52409 5.12094C7.52409 4.13589 6.74167 3.19973 5.70773 3.19971H2.43113V7.04216Z" fill="white"/>
<path d="M63.6928 15.3627H61.2617V0.866282H63.6928V15.3627Z" fill="white"/>
<path d="M164.245 15.3627H161.814V0.866282H164.245V15.3627Z" fill="white"/>
</svg>
